<?xml version="1.0" encoding="iso-8859-1"?>
<!-- Generator: Adobe Illustrator 19.0.0, SVG Export Plug-In . SVG Version: 6.00 Build 0)  -->
<svg version="1.1" id="Layer_1" xmlns="http://www.w3.org/2000/svg" xmlns:xlink="http://www.w3.org/1999/xlink" x="0px" y="0px"
	 viewBox="0 0 329.998 329.998" style="enable-background:new 0 0 329.998 329.998;" xml:space="preserve">
<g id="XMLID_873_">
	<g id="XMLID_874_">
		<path id="XMLID_875_" d="M320.605,310c-16.068-45.459-50.888-80.607-93.903-97.994C258.722,191.566,280,155.723,280,115
			C280,51.589,228.411,0,165,0c-63.412,0-115,51.589-115,115c0,40.723,21.278,76.567,53.298,97.005
			c-43.016,17.387-77.836,52.535-93.904,97.994c-1.623,4.591-0.916,9.684,1.896,13.66c2.811,3.976,7.378,6.339,12.247,6.339h282.927
			c4.869,0,9.436-2.364,12.247-6.339C321.521,319.683,322.228,314.59,320.605,310z M79.999,115c0-46.869,38.131-85,85-85
			c46.869,0,85,38.131,85,85c0,46.869-38.131,85-85,85C118.13,200,79.999,161.869,79.999,115z M46.638,299.998
			C70.067,257.398,115.275,230,165,230c49.726,0,94.932,27.398,118.36,69.998H46.638z"/>
	</g>
	<g id="XMLID_879_">
		<path id="XMLID_880_" d="M165,60c-30.327,0-55,24.673-55,55c0,30.327,24.673,55,55,55c30.327,0,55-24.673,55-55
			C220,84.673,195.327,60,165,60z M165,140c-13.785,0-25-11.215-25-25c0-13.785,11.215-25,25-25c13.785,0,25,11.215,25,25
			C190,128.785,178.785,140,165,140z"/>
	</g>
</g>
<g>
</g>
<g>
</g>
<g>
</g>
<g>
</g>
<g>
</g>
<g>
</g>
<g>
</g>
<g>
</g>
<g>
</g>
<g>
</g>
<g>
</g>
<g>
</g>
<g>
</g>
<g>
</g>
<g>
</g>
</svg>
